<?xml version="1.0" encoding="utf-8"?>
<?xml-stylesheet type="text/xsl" href="rss1.xsl"?>
<rss version="2.0" xmlns:atom="http://www.w3.org/2005/Atom" xmlns:content="http://purl.org/rss/1.0/modules/content/" xmlns:dc="http://purl.org/dc/elements/1.1/" xmlns:media="http://search.yahoo.com/mrss/">
<channel>
 <title>Getty</title>
 <link>http://www.gettyimg.com/</link>
 <atom:link href="http://www.gettyimg.com/" rel="self" type="application/rss+xml" />

 
                <item>
                <title><![CDATA[【HD Live Performances】WEB-DL - Jão - Superturnê - 2024 - V2 - WEB-DL 1080P AAC2.0 H264-chmt]]></title>
                <link><![CDATA[https://sharemania.us/threads/j%C3%A3o-superturn%C3%AA-2024-v2-web-dl-1080p-aac2-0-h264-chmt.236338/]]></link>
                <description><![CDATA[<article>
<blockquote class="messageText SelectQuoteContainer ugc baseHtml">
<img src="https://i.imgur.com/odFx3Fy.jpg" class="bbCodeImage LbImage" alt="[​IMG]" data-url="https://i.imgur.com/odFx3Fy.jpg" style=""> <br>
<br>
Video/Audio updated.<br>
<br>
<div class="ToggleTriggerAnchor bbCodeSpoilerContainer">
<button type="button" class="button bbCodeSpoilerButton ToggleTrigger Tooltip JsOnly" data-target="> .SpoilerTarget"><span>Spoiler: <span class="SpoilerTitle">MediaInfo</span></span></button>
<div class="SpoilerTarget bbCodeSpoilerText">General<br>
Unique ID : 309459144892586355346899882671025389433 (0xE8CFA9D2B3C1BA1FB57AE7E661077F79)<br>
Complete name : E:\acervo-dl\Jao Superturne Ao Vivo\Jao.Superturne.Ao.Vivo.2024.V2.1080p.GLBO.WEB-DL.AAC2.0.x264-chmt.mkv<br>
Format : Matroska<br>
Format version : Version 4 / Version 2<br>
File size : 4.22 GiB<br>
Duration : 2 h 6 min<br>
Overall bit rate : 4 791 kb/s<br>
Encoded date : UTC 2024-01-23 20:45:57<br>
Writing application : mkvmerge v59.0.0 ('Shining Star') 64-bit<br>
Writing library : libebml v1.4.2 + libmatroska v1.6.4<br>
<br>
Video<br>
ID : 1<br>
Format : AVC<br>
Format/Info : Advanced Video Codec<br>
Format profile : High@L4<br>
Format settings, CABAC : Yes<br>
Format settings, RefFrames : 2 frames<br>
Codec ID : V_MPEG4/ISO/AVC<br>
Duration : 2 h 6 min<br>
Bit rate : 4 660 kb/s<br>
Width : 1 920 pixels<br>
Height : 1 080 pixels<br>
Display aspect ratio : 16:9<br>
Frame rate mode : Constant<br>
Frame rate : 29.970 (30000/1001) FPS<br>
Color space : YUV<br>
Chroma subsampling : 4:2:0<br>
Bit depth : 8 bits<br>
Scan type : Progressive<br>
Bits/(Pixel*Frame) : 0.075<br>
Stream size : 4.11 GiB (97%)<br>
Writing library : x264 core 148<br>
Encoding settings : cabac=1 / ref=2 / deblock=1:0:0 / analyse=0x3:0x113 / me=hex / subme=4 / psy=1 / psy_rd=1.00:0.00 / mixed_ref=0 / me_range=16 / chroma_me=1 / trellis=1 / 8x8dct=1 / cqm=0 / deadzone=21,11 / fast_pskip=1 / chroma_qp_offset=0 / threads=24 / lookahead_threads=6 / sliced_threads=0 / nr=0 / decimate=1 / interlaced=0 / bluray_compat=0 / constrained_intra=0 / bframes=1 / b_pyramid=0 / b_adapt=1 / b_bias=0 / direct=1 / weightb=1 / open_gop=0 / weightp=1 / keyint=30 / keyint_min=16 / scenecut=0 / intra_refresh=0 / rc=2pass / mbtree=0 / bitrate=4660 / ratetol=1.0 / qcomp=0.60 / qpmin=0 / qpmax=69 / qpstep=4 / cplxblur=20.0 / qblur=0.5 / ip_ratio=1.40 / pb_ratio=1.30 / aq=1:1.00<br>
Default : Yes<br>
Forced : No<br>
<br>
Audio<br>
ID : 2<br>
Format : AAC<br>
Format/Info : Advanced Audio Codec<br>
Format profile : LC<br>
Codec ID : A_AAC<br>
Duration : 2 h 6 min<br>
Bit rate : 129 kb/s<br>
Channel(s) : 2 channels<br>
Channel positions : Front: L R<br>
Sampling rate : 44.1 kHz<br>
Frame rate : 43.066 FPS (1024 SPF)<br>
Compression mode : Lossy<br>
Stream size : 116 MiB (3%)<br>
Title : Brazilian Portuguese<br>
Language : Portuguese<br>
Default : Yes<br>
Forced : No</div>
</div><br>
Link:<br>
<div class="bbCodeBlock bbCodeVfcHH HiddenContent">
<div class="attribution type">Hidden Content:</div>
<blockquote>You must reply before you can see the hidden data contained here.</blockquote>
</div>
<div class="messageTextEndMarker">&nbsp;</div>
</blockquote>
</article>]]></description>
                <author><![CDATA[chmt]]></author>
                </item>

                
                <item>
                <title><![CDATA[【Requests】[REQ AUD] - The Doors albums in ATMOS mix]]></title>
                <link><![CDATA[https://sharemania.us/threads/the-doors-albums-in-atmos-mix.236339/]]></link>
                <description><![CDATA[<article>
<blockquote class="messageText SelectQuoteContainer ugc baseHtml">
I notice that The Doors albums in ATMOS are on Apple Music and on Tidal.<br>
<br>
It would be nice to have them here.<br>
<br>
Thanx.
<div class="messageTextEndMarker">&nbsp;</div>
</blockquote>
</article>]]></description>
                <author><![CDATA[JuniorPinto]]></author>
                </item>

                </channel></rss>